<?xml version="1.0" encoding="UTF-8" standalone="no"?>
<!-- Created with Inkscape (http://www.inkscape.org/) -->

<svg
   width="1061.422"
   height="1431.4788"
   viewBox="0 0 280.83456 378.74541"
   version="1.1"
   id="svg5"
   inkscape:version="1.2.1 (9c6d41e410, 2022-07-14)"
   sodipodi:docname="card.svg"
   inkscape:export-filename="card.png"
   inkscape:export-xdpi="96"
   inkscape:export-ydpi="96"
   xmlns:inkscape="http://www.inkscape.org/namespaces/inkscape"
   xmlns:sodipodi="http://sodipodi.sourceforge.net/DTD/sodipodi-0.dtd"
   xmlns:xlink="http://www.w3.org/1999/xlink"
   xmlns="http://www.w3.org/2000/svg"
   xmlns:svg="http://www.w3.org/2000/svg">
  <sodipodi:namedview
     id="namedview7"
     pagecolor="#505050"
     bordercolor="#eeeeee"
     borderopacity="1"
     inkscape:showpageshadow="0"
     inkscape:pageopacity="0"
     inkscape:pagecheckerboard="0"
     inkscape:deskcolor="#505050"
     inkscape:document-units="mm"
     showgrid="false"
     inkscape:zoom="0.37282197"
     inkscape:cx="33.528067"
     inkscape:cy="364.78537"
     inkscape:window-width="1920"
     inkscape:window-height="1017"
     inkscape:window-x="1912"
     inkscape:window-y="-8"
     inkscape:window-maximized="1"
     inkscape:current-layer="layer1" />
  <defs
     id="defs2">
    <inkscape:path-effect
       effect="mirror_symmetry"
       start_point="21.5625,95.291064"
       end_point="32.619687,88.460419"
       center_point="32.619687,95.291064"
       id="path-effect5821"
       is_visible="true"
       lpeversion="1.2"
       lpesatellites=""
       mode="X"
       discard_orig_path="false"
       fuse_paths="false"
       oposite_fuse="false"
       split_items="false"
       split_open="false"
       link_styles="false" />
    <inkscape:path-effect
       effect="mirror_symmetry"
       start_point="43.676874,88.460419"
       end_point="43.676874,102.12171"
       center_point="43.676874,95.291064"
       id="path-effect5763"
       is_visible="true"
       lpeversion="1.2"
       lpesatellites=""
       mode="free"
       discard_orig_path="false"
       fuse_paths="false"
       oposite_fuse="false"
       split_items="false"
       split_open="false"
       link_styles="false" />
    <inkscape:path-effect
       effect="mirror_symmetry"
       start_point="43.676874,88.460419"
       end_point="43.676874,102.12171"
       center_point="43.676874,95.291064"
       id="path-effect5757"
       is_visible="true"
       lpeversion="1.2"
       lpesatellites=""
       mode="free"
       discard_orig_path="false"
       fuse_paths="false"
       oposite_fuse="false"
       split_items="false"
       split_open="false"
       link_styles="false" />
    <inkscape:path-effect
       effect="mirror_symmetry"
       start_point="116.21881,7.0249401"
       end_point="116.21881,385.77036"
       center_point="116.21881,196.39765"
       id="path-effect7242"
       is_visible="true"
       lpeversion="1.2"
       lpesatellites=""
       mode="vertical"
       discard_orig_path="false"
       fuse_paths="false"
       oposite_fuse="false"
       split_items="false"
       split_open="false"
       link_styles="false" />
  </defs>
  <g
     inkscape:label="Layer 1"
     inkscape:groupmode="layer"
     id="layer1"
     transform="translate(24.198477,-7.0249401)">
    <g
       inkscape:label="Rendered Gears"
       transform="matrix(1.6727619,0,0,1.6646484,33.376653,43.462374)"
       id="g997"
       style="display:none;fill:#44324e;fill-opacity:1;stroke:none;stroke-width:0.599269">
      <path
         id="path993"
         style="fill:#44324e;fill-opacity:1;stroke:none;stroke-width:0.158556"
         d="m -0.60256582,-21.888966 -0.71933598,1.719791 -0.2025716,1.236617 0.037207,0.464055 -1.8562175,0.244429 -0.083716,-0.457853 -0.5162476,-1.142566 -1.1399821,-1.474329 -1.1637532,0.311609 -0.250114,1.847433 0.1245403,1.246952 0.1560628,0.438733 -1.7296102,0.716235 -0.199471,-0.420129 -0.7942668,-0.969967 -1.4825963,-1.129646 -1.043347,0.602547 0.236161,1.848983 0.443384,1.172538 0.264066,0.382922 -1.48518,1.139982 -0.301791,-0.3545 -1.017509,-0.731738 -1.724959,-0.706934 -0.852144,0.852144 0.70745,1.724443 0.731221,1.018026 0.354501,0.30179 -1.139982,1.485181 -0.382923,-0.264067 -1.172538,-0.443384 -1.848983,-0.236678 -0.602547,1.043864 1.129647,1.482597 0.969967,0.79375 0.420129,0.1999878 -0.716235,1.7296102 -0.438217,-0.1560628 -1.247469,-0.1245402 -1.846915,0.2501139 -0.312126,1.1637533 1.474845,1.1399821 1.14205,0.5157308 0.457853,0.084233 -0.24443,1.8562175 -0.463537,-0.037724 -1.237134,0.2030884 -1.719275,0.71933592 v 1.2050944 l 1.719275,0.71933598 1.237134,0.2025716 0.463537,-0.037207 0.24443,1.8562175 -0.457853,0.083716 -1.14205,0.5157308 -1.474845,1.1399821 0.312126,1.16427 1.846915,0.2495972 1.247469,-0.1240235 0.438217,-0.1565795 0.716235,1.7301269 -0.420129,0.199471 -0.969967,0.79375 -1.129647,1.4831136 0.602547,1.043348 1.848983,-0.236678 1.172538,-0.442867 0.382923,-0.264584 1.139982,1.485698 -0.354501,0.301273 -0.731221,1.018026 -0.70745,1.724442 0.852144,0.852145 1.724959,-0.706934 1.017509,-0.731221 0.301791,-0.354501 1.48518,1.139466 -0.264066,0.383439 -0.443384,1.172538 -0.236161,1.848466 1.043347,0.602547 1.4825963,-1.12913 0.7942668,-0.969966 0.199471,-0.420647 1.7296102,0.716753 -0.1560628,0.438216 -0.1245403,1.247469 0.250114,1.846915 1.1637532,0.312126 1.1399821,-1.474845 0.5162476,-1.142566 0.083716,-0.457337 1.8562175,0.243913 -0.037207,0.464055 0.2025716,1.237133 0.71933598,1.719275 h 1.2050944 L 1.3218645,20.169448 1.5244361,18.932315 1.4872291,18.46826 3.3434466,18.224347 3.4276791,18.681684 3.9434099,19.82425 5.083392,21.299095 6.2471453,20.986969 6.4972592,19.140054 6.372719,17.892585 6.2166562,17.454369 l 1.7296102,-0.716753 0.199471,0.420647 0.7942668,0.969966 1.4825968,1.12913 1.043347,-0.602547 -0.236161,-1.848466 -0.443384,-1.172538 -0.264066,-0.383439 1.48518,-1.139466 0.301791,0.354501 1.018025,0.731221 1.724443,0.706934 0.852144,-0.852145 -0.70745,-1.724442 -0.731222,-1.018026 -0.3545,-0.301273 1.139982,-1.485698 0.382922,0.264584 1.172539,0.442867 1.848982,0.236678 0.602548,-1.043348 -1.129647,-1.4831132 -0.969967,-0.79375 -0.420129,-0.199471 0.716235,-1.7301269 0.438733,0.1565795 1.246952,0.1240235 1.846916,-0.2495972 0.312126,-1.16427 -1.474846,-1.1399821 -1.142049,-0.5157308 -0.457853,-0.083716 0.24443,-1.8562175 0.463537,0.037207 1.237134,-0.2025716 1.719275,-0.71933598 v -1.2050944 l -1.719275,-0.71933592 -1.237134,-0.2030884 -0.463537,0.037724 -0.24443,-1.8562175 0.457853,-0.084233 1.142049,-0.5157308 1.474846,-1.1399821 -0.312126,-1.1637533 -1.846916,-0.2501139 -1.246952,0.1245402 -0.438733,0.1560628 -0.716235,-1.7296102 0.420129,-0.1999878 0.969967,-0.79375 1.129647,-1.4825974 -0.602548,-1.043864 -1.848982,0.236678 -1.172539,0.443384 -0.382922,0.264067 -1.139982,-1.485181 0.3545,-0.30179 0.731222,-1.018026 0.70745,-1.724443 -0.852144,-0.852144 -1.724443,0.706934 -1.018025,0.731738 -0.301791,0.3545 -1.48518,-1.139982 0.264066,-0.382922 0.443384,-1.172538 0.236161,-1.848983 -1.043347,-0.602547 -1.4825968,1.129646 -0.7942668,0.969967 -0.199471,0.420129 -1.7296102,-0.716235 0.1560628,-0.438733 0.1245402,-1.246952 -0.2501139,-1.847433 -1.1637533,-0.311609 -1.1399821,1.474329 -0.5157308,1.142566 -0.084233,0.457853 -1.8562175,-0.244429 0.037207,-0.464055 -0.2025716,-1.236617 -0.71933592,-1.719791 z M -1.861849e-5,-2.6456965 A 2.6458333,2.6458333 0 0 1 2.6458147,1.3681771e-4 2.6458333,2.6458333 0 0 1 -1.861849e-5,2.6459702 2.6458333,2.6458333 0 0 1 -2.645852,1.3681771e-4 2.6458333,2.6458333 0 0 1 -1.861849e-5,-2.6456965 Z"
         inkscape:label="Gear" />
      <path
         id="path1007"
         style="fill:#362840;fill-opacity:1;stroke:none;stroke-width:0.158556"
         d="m 22.013418,-15.777833 -0.526154,1.25793 -0.14817,0.904516 0.02722,0.33943 -1.357719,0.178786 -0.06124,-0.334894 -0.377606,-0.835722 -0.833833,-1.078389 -0.85122,0.227924 -0.182944,1.351294 0.09109,0.912075 0.114151,0.320908 -1.265113,0.523886 -0.145902,-0.307301 -0.580961,-0.709476 -1.084436,-0.826272 -0.76315,0.440729 0.172739,1.352427 0.32431,0.857645 0.19315,0.280086 -1.086326,0.833833 -0.220743,-0.259297 -0.744251,-0.535225 -1.26171,-0.517082 -0.623296,0.623295 0.51746,1.2613329 0.534847,0.7446288 0.259298,0.2207424 -0.833833,1.0863264 -0.280086,-0.1931502 -0.857646,-0.3243104 -1.352427,-0.1731167 -0.440729,0.7635278 0.826273,1.0844366 0.709476,0.5805835 0.307301,0.1462798 -0.523886,1.2651126 -0.320531,-0.1141511 -0.912453,-0.091094 -1.350915,0.1829443 -0.228302,0.8512201 1.078766,0.8338328 0.835345,0.377228 0.334894,0.061612 -0.178787,1.35771881 -0.339051,-0.027593 -0.904894,0.1485477 -1.257553,0.52615376 v 0.8814586 L 7.701424,1.1996983 8.606318,1.3478681 8.945369,1.3206531 9.124156,2.6783719 8.789262,2.7396059 7.953917,3.116834 6.875151,3.9506668 l 0.228302,0.8515977 1.350915,0.182566 0.912453,-0.09072 0.320531,-0.114529 0.523886,1.26549 -0.307301,0.1459024 -0.709476,0.580584 -0.826273,1.084814 0.440729,0.76315 1.352427,-0.173116 0.857646,-0.323933 0.280086,-0.193528 0.833833,1.0867042 -0.259298,0.220365 -0.534847,0.744628 -0.51746,1.2613329 0.623296,0.623296 1.26171,-0.517083 0.744251,-0.534847 0.220743,-0.259297 1.086326,0.833455 -0.19315,0.280464 -0.32431,0.857646 -0.172739,1.352049 0.76315,0.440729 1.084436,-0.825895 0.580961,-0.709476 0.145902,-0.307679 1.265113,0.524264 -0.114151,0.320531 -0.09109,0.912453 0.182944,1.350915 0.85122,0.228302 0.833833,-1.078766 0.377606,-0.835723 0.06124,-0.334516 1.357719,0.178409 -0.02722,0.33943 0.14817,0.904893 0.526154,1.257553 h 0.881459 l 0.526153,-1.257554 0.14817,-0.904893 -0.02722,-0.33943 1.357719,-0.178409 0.06161,0.334516 0.377229,0.835723 0.833832,1.078766 0.851221,-0.228302 0.182944,-1.350915 -0.0911,-0.912453 -0.11415,-0.32053 1.265112,-0.524265 0.145902,0.30768 0.580962,0.709475 1.084435,0.825895 0.76315,-0.440729 -0.172738,-1.352049 -0.324311,-0.857645 -0.193149,-0.280465 1.086325,-0.833455 0.220743,0.259298 0.744629,0.534847 1.261333,0.517082 0.623295,-0.623296 -0.51746,-1.2613319 -0.534848,-0.744629 -0.259296,-0.220364 0.833832,-1.0867052 0.280086,0.193528 0.857647,0.323933 1.352426,0.173116 0.44073,-0.76315 -0.826273,-1.084814 -0.709477,-0.580583 -0.3073,-0.1459024 0.523885,-1.265491 0.320909,0.11453 0.912075,0.09072 1.350915,-0.182567 0.228303,-0.8515972 -1.078767,-0.8338328 -0.835345,-0.377228 -0.334893,-0.061234 0.178786,-1.3577187 0.339052,0.027215 0.904894,-0.1481697 1.257553,-0.52615383 v -0.881459 l -1.257546,-0.52615376 -0.904894,-0.1485478 -0.339052,0.027593 -0.178786,-1.35771871 0.334893,-0.061612 0.835345,-0.3772281 1.078767,-0.8338328 -0.228303,-0.8512201 -1.350915,-0.1829442 -0.912075,0.091094 -0.320909,0.1141512 -0.523885,-1.2651127 0.3073,-0.1462798 0.709477,-0.5805835 0.826273,-1.0844368 -0.44073,-0.7635278 -1.352426,0.1731166 -0.857647,0.3243105 -0.280086,0.1931502 -0.833832,-1.0863264 0.259296,-0.2207425 0.534848,-0.7446287 0.51746,-1.2613331 -0.623295,-0.623295 -1.261333,0.517082 -0.744629,0.535225 -0.220743,0.259297 -1.086325,-0.833832 0.193149,-0.280086 0.324311,-0.857646 0.172738,-1.352427 -0.76315,-0.440729 -1.084435,0.826272 -0.580962,0.709476 -0.145902,0.307301 -1.265112,-0.523885 0.11415,-0.320909 0.0911,-0.912075 -0.182944,-1.351293 -0.851221,-0.227924 -0.833832,1.078388 -0.377229,0.835722 -0.06161,0.334894 -1.357719,-0.178786 0.02722,-0.33943 -0.14817,-0.904515 -0.526153,-1.25793 z m 0.440729,14.0753693 A 1.9352783,1.9352783 0 0 1 24.389425,0.23281457 1.9352783,1.9352783 0 0 1 22.454147,2.1680929 1.9352783,1.9352783 0 0 1 20.518869,0.23281457 1.9352783,1.9352783 0 0 1 22.454147,-1.7024637 Z"
         inkscape:label="Gear" />
      <path
         id="path1009"
         style="fill:#44324e;fill-opacity:1;stroke:none;stroke-width:0.158556"
         d="m 110.97647,71.049385 -0.71934,1.719791 -0.20257,1.236617 0.0372,0.464055 -1.85622,0.244429 -0.0837,-0.457853 -0.51625,-1.142566 -1.13998,-1.474329 -1.16376,0.311609 -0.25011,1.847433 0.12454,1.246952 0.15606,0.438733 -1.72961,0.716235 -0.19947,-0.420129 -0.79427,-0.969967 -1.48259,-1.129646 -1.04335,0.602547 0.23616,1.848983 0.44339,1.172538 0.26406,0.382922 -1.485177,1.139982 -0.301791,-0.3545 -1.017509,-0.731738 -1.724959,-0.706934 -0.852144,0.852144 0.70745,1.724443 0.731221,1.018026 0.354501,0.30179 -1.139982,1.485181 -0.382923,-0.264067 -1.172538,-0.443384 -1.848983,-0.236678 -0.602547,1.043864 1.129647,1.482597 0.969967,0.79375 0.420129,0.199988 -0.716235,1.72961 -0.438217,-0.156063 -1.247469,-0.12454 -1.846915,0.250114 -0.312126,1.163753 1.474845,1.139982 1.14205,0.515731 0.457853,0.08423 -0.24443,1.856218 -0.463537,-0.03772 -1.237134,0.203088 -1.719275,0.719336 v 1.205094 l 1.719275,0.719336 1.237134,0.202572 0.463537,-0.03721 0.24443,1.856217 -0.457853,0.08372 -1.14205,0.515731 -1.474845,1.139982 0.312126,1.16427 1.846915,0.249598 1.247469,-0.124024 0.438217,-0.156579 0.716235,1.730121 -0.420129,0.19947 -0.969967,0.79375 -1.129647,1.48312 0.602547,1.04335 1.848983,-0.23668 1.172538,-0.44287 0.382923,-0.26458 1.139982,1.4857 -0.354501,0.30127 -0.731221,1.01802 -0.70745,1.72445 0.852144,0.85214 1.724959,-0.70693 1.017509,-0.73122 0.301791,-0.3545 1.485177,1.13946 -0.26406,0.38344 -0.44339,1.17254 -0.23616,1.84846 1.04335,0.60255 1.48259,-1.12913 0.79427,-0.96996 0.19947,-0.42065 1.72961,0.71675 -0.15606,0.43822 -0.12454,1.24747 0.25011,1.84691 1.16376,0.31213 1.13998,-1.47485 0.51625,-1.14256 0.0837,-0.45734 1.85622,0.24391 -0.0372,0.46406 0.20257,1.23713 0.71934,1.71928 h 1.2051 l 0.71933,-1.71928 0.20257,-1.23713 -0.0372,-0.46406 1.85621,-0.24391 0.0842,0.45734 0.51573,1.14256 1.13998,1.47485 1.16375,-0.31213 0.25012,-1.84691 -0.12454,-1.24747 -0.15607,-0.43822 1.72961,-0.71675 0.19947,0.42064 0.79427,0.96997 1.4826,1.12913 1.04334,-0.60255 -0.23616,-1.84846 -0.44338,-1.17254 -0.26407,-0.38344 1.48518,-1.13947 0.30179,0.35451 1.01803,0.73122 1.72444,0.70693 0.85215,-0.85214 -0.70745,-1.72445 -0.73123,-1.01802 -0.3545,-0.30128 1.13999,-1.48569 0.38292,0.26458 1.17254,0.44287 1.84898,0.23668 0.60255,-1.04335 -1.12965,-1.48312 -0.96997,-0.79375 -0.42013,-0.19947 0.71624,-1.730122 0.43873,0.156579 1.24695,0.124024 1.84692,-0.249597 0.31213,-1.16427 -1.47485,-1.139982 -1.14205,-0.515731 -0.45785,-0.08372 0.24443,-1.856218 0.46354,0.03721 1.23713,-0.202571 1.71927,-0.719336 V 92.33594 l -1.71927,-0.719336 -1.23713,-0.203088 -0.46354,0.03772 -0.24443,-1.856217 0.45785,-0.08423 1.14205,-0.515731 1.47485,-1.139982 -0.31213,-1.163754 -1.84692,-0.250114 -1.24695,0.124541 -0.43873,0.156062 -0.71624,-1.72961 0.42013,-0.199988 0.96997,-0.79375 1.12965,-1.482597 -0.60255,-1.043864 -1.84898,0.236678 -1.17254,0.443384 -0.38292,0.264067 -1.13999,-1.485181 0.3545,-0.30179 0.73123,-1.018026 0.70745,-1.724443 -0.85215,-0.852144 -1.72444,0.706934 -1.01803,0.731738 -0.30179,0.3545 -1.48518,-1.139982 0.26407,-0.382922 0.44338,-1.172538 0.23616,-1.848983 -1.04334,-0.602547 -1.4826,1.129646 -0.79427,0.969967 -0.19947,0.420129 -1.72961,-0.716235 0.15607,-0.438733 0.12454,-1.246952 -0.25012,-1.847433 -1.16375,-0.311609 -1.13998,1.474329 -0.51573,1.142566 -0.0842,0.457853 -1.85621,-0.244429 0.0372,-0.464055 -0.20257,-1.236617 -0.71934,-1.719791 z m 0.60255,19.24327 a 2.6458333,2.6458333 0 0 1 2.64583,2.645833 2.6458333,2.6458333 0 0 1 -2.64583,2.645833 2.6458333,2.6458333 0 0 1 -2.64584,-2.645833 2.6458333,2.6458333 0 0 1 2.64584,-2.645833 z"
         inkscape:label="Gear" />
      <path
         id="path1011"
         style="fill:#362840;fill-opacity:1;stroke:none;stroke-width:0.158556"
         d="m 111.15059,57.83338 -0.46716,1.116865 -0.13155,0.803083 0.0242,0.301366 -1.20547,0.158737 -0.0544,-0.297338 -0.33526,-0.742005 -0.74033,-0.957457 -0.75576,0.202364 -0.16243,1.199759 0.0809,0.809795 0.10135,0.284921 -1.12324,0.465137 -0.12954,-0.27284 -0.51582,-0.629915 -0.96282,-0.733614 -0.67757,0.391306 0.15337,1.200765 0.28794,0.761469 0.17149,0.248677 -0.96451,0.740326 -0.19598,-0.230219 -0.66079,-0.475205 -1.12023,-0.459097 -0.55339,0.553399 0.45943,1.119887 0.47487,0.661125 0.23022,0.195989 -0.74033,0.964505 -0.24868,-0.17149 -0.76147,-0.287942 -1.200763,-0.153704 -0.391305,0.677906 0.733614,0.962827 0.629914,0.515476 0.27284,0.129876 -0.46514,1.123242 -0.284582,-0.10135 -0.810131,-0.08088 -1.199422,0.162429 -0.2027,0.755764 0.957792,0.740326 0.74167,0.334926 0.297338,0.0547 -0.158737,1.205464 -0.30103,-0.0245 -0.803419,0.131889 -1.11653,0.467151 v 0.782616 l 1.11653,0.467151 0.803419,0.131554 0.30103,-0.02417 0.158737,1.205463 -0.297338,0.05437 -0.74167,0.334925 -0.957792,0.740327 0.2027,0.756099 1.199422,0.162094 0.810131,-0.08054 0.284582,-0.101685 0.46514,1.123575 -0.27284,0.12954 -0.629914,0.515476 -0.733614,0.963167 0.391305,0.677571 1.200763,-0.153704 0.76147,-0.287608 0.24868,-0.171824 0.74033,0.964842 -0.23022,0.195651 -0.47487,0.661122 -0.45943,1.119891 0.55339,0.553396 1.12023,-0.459094 0.66079,-0.474868 0.19598,-0.23022 0.96451,0.739988 -0.17149,0.249013 -0.28794,0.76147 -0.15337,1.200426 0.67757,0.391307 0.96282,-0.733279 0.51582,-0.62991 0.12954,-0.273178 1.12324,0.465471 -0.10135,0.284588 -0.0809,0.810131 0.16243,1.199419 0.75576,0.202704 0.74033,-0.957796 0.33526,-0.742001 0.0544,-0.297005 1.20547,0.1584 -0.0242,0.301369 0.13155,0.803416 0.46716,1.116534 h 0.78261 l 0.46715,-1.116534 0.13155,-0.803416 -0.0242,-0.301369 1.20546,-0.1584 0.0547,0.297005 0.33492,0.742001 0.74033,0.957796 0.75576,-0.202704 0.16243,-1.199419 -0.0809,-0.810131 -0.10136,-0.284588 1.12324,-0.465471 0.12954,0.273171 0.51582,0.629917 0.96283,0.733279 0.67756,-0.391307 -0.15337,-1.200426 -0.28794,-0.76147 -0.17149,-0.249013 0.96451,-0.739994 0.19599,0.230226 0.66112,0.474868 1.11989,0.459094 0.5534,-0.553396 -0.45943,-1.119891 -0.47488,-0.661122 -0.23021,-0.195657 0.74033,-0.964836 0.24867,0.171824 0.76147,0.287608 1.20077,0.153704 0.3913,-0.677571 -0.73361,-0.963167 -0.62992,-0.515476 -0.27284,-0.12954 0.46514,-1.123576 0.28492,0.101685 0.80979,0.08054 1.19943,-0.162093 0.2027,-0.756099 -0.9578,-0.740327 -0.74166,-0.334925 -0.29734,-0.05437 0.15874,-1.205464 0.30103,0.02417 0.80341,-0.131553 1.11653,-0.467151 v -0.782612 l -1.11653,-0.467151 -0.80341,-0.131889 -0.30103,0.0245 -0.15874,-1.205463 0.29734,-0.0547 0.74166,-0.334926 0.9578,-0.740326 -0.2027,-0.755764 -1.19943,-0.162429 -0.80979,0.08088 -0.28492,0.10135 -0.46514,-1.123242 0.27284,-0.129876 0.62992,-0.515477 0.73361,-0.962827 -0.3913,-0.677905 -1.20077,0.153703 -0.76147,0.287942 -0.24867,0.171491 -0.74033,-0.964506 0.23021,-0.195988 0.47488,-0.661126 0.45943,-1.119886 -0.5534,-0.553399 -1.11989,0.459097 -0.66112,0.475204 -0.19599,0.23022 -0.96451,-0.740327 0.17149,-0.248677 0.28794,-0.761468 0.15337,-1.200766 -0.67756,-0.391305 -0.96283,0.733614 -0.51582,0.629915 -0.12954,0.27284 -1.12324,-0.465137 0.10136,-0.284922 0.0809,-0.809794 -0.16243,-1.199759 -0.75576,-0.202365 -0.74033,0.957458 -0.33492,0.742004 -0.0547,0.297339 -1.20546,-0.158737 0.0242,-0.301366 -0.13155,-0.803083 -0.46716,-1.116866 z m 0.3913,12.49695 a 1.7182551,1.7182551 0 0 1 1.71826,1.718255 1.7182551,1.7182551 0 0 1 -1.71826,1.718255 1.7182551,1.7182551 0 0 1 -1.71826,-1.718255 1.7182551,1.7182551 0 0 1 1.71826,-1.718255 z"
         inkscape:label="Gear" />
      <path
         id="path1013"
         style="fill:#44324e;fill-opacity:1;stroke:none;stroke-width:0.158556"
         d="m 52.00504,161.85612 -0.71934,1.71979 -0.20257,1.23662 0.0372,0.46406 -1.85622,0.24442 -0.0837,-0.45785 -0.51625,-1.14256 -1.13998,-1.47433 -1.16376,0.31161 -0.25011,1.84743 0.12454,1.24695 0.15606,0.43873 -1.72961,0.71624 -0.19947,-0.42013 -0.79427,-0.96997 -1.48259,-1.12964 -1.04335,0.60254 0.23616,1.84899 0.44339,1.17253 0.26406,0.38293 -1.485177,1.13998 -0.301791,-0.3545 -1.017509,-0.73174 -1.724959,-0.70693 -0.852144,0.85214 0.70745,1.72444 0.731221,1.01803 0.354501,0.30179 -1.139982,1.48518 -0.382923,-0.26407 -1.172538,-0.44338 -1.848983,-0.23668 -0.602547,1.04387 1.129647,1.48259 0.969967,0.79375 0.420129,0.19999 -0.716235,1.72961 -0.438217,-0.15606 -1.247469,-0.12454 -1.846915,0.25011 -0.312126,1.16375 1.474845,1.13999 1.14205,0.51573 0.457853,0.0842 -0.24443,1.85622 -0.463537,-0.0377 -1.237134,0.20308 -1.719275,0.71934 v 1.20509 l 1.719275,0.71934 1.237134,0.20257 0.463537,-0.0372 0.24443,1.85622 -0.457853,0.0837 -1.14205,0.51573 -1.474845,1.13998 0.312126,1.16427 1.846915,0.2496 1.247469,-0.12402 0.438217,-0.15658 0.716235,1.73012 -0.420129,0.19947 -0.969967,0.79375 -1.129647,1.48312 0.602547,1.04335 1.848983,-0.23668 1.172538,-0.44287 0.382923,-0.26458 1.139982,1.4857 -0.354501,0.30127 -0.731221,1.01802 -0.70745,1.72445 0.852144,0.85214 1.724959,-0.70693 1.017509,-0.73122 0.301791,-0.3545 1.485177,1.13946 -0.26406,0.38344 -0.44339,1.17254 -0.23616,1.84846 1.04335,0.60255 1.48259,-1.12913 0.79427,-0.96996 0.19947,-0.42065 1.72961,0.71675 -0.15606,0.43822 -0.12454,1.24747 0.25011,1.84691 1.16376,0.31213 1.13998,-1.47485 0.51625,-1.14256 0.0837,-0.45734 1.85622,0.24391 -0.0372,0.46406 0.20257,1.23713 0.71934,1.71928 h 1.2051 l 0.71933,-1.71928 0.20257,-1.23713 -0.0372,-0.46406 1.85621,-0.24391 0.0842,0.45734 0.51573,1.14256 1.13998,1.47485 1.16375,-0.31213 0.25012,-1.84691 -0.12454,-1.24747 -0.15607,-0.43822 1.72961,-0.71675 0.19947,0.42064 0.79427,0.96997 1.4826,1.12913 1.04334,-0.60255 -0.23616,-1.84846 -0.44338,-1.17254 -0.26407,-0.38344 1.48518,-1.13947 0.30179,0.35451 1.01803,0.73122 1.72444,0.70693 0.85215,-0.85214 -0.70745,-1.72445 -0.73123,-1.01802 -0.3545,-0.30128 1.13999,-1.48569 0.38292,0.26458 1.17254,0.44287 1.84898,0.23668 0.60255,-1.04335 -1.12965,-1.48312 -0.96997,-0.79375 -0.42013,-0.19947 0.71624,-1.73012 0.43873,0.15657 1.24695,0.12403 1.84692,-0.2496 0.31213,-1.16427 -1.47485,-1.13998 -1.14205,-0.51573 -0.45785,-0.0837 0.24443,-1.85622 0.46354,0.0372 1.23713,-0.20257 1.71927,-0.71934 v -1.20509 l -1.71927,-0.71934 -1.23713,-0.20309 -0.46354,0.0377 -0.24443,-1.85621 0.45785,-0.0842 1.14205,-0.51573 1.47485,-1.13999 -0.31213,-1.16375 -1.84692,-0.25011 -1.24695,0.12454 -0.43873,0.15606 -0.71624,-1.72961 0.42013,-0.19999 0.96997,-0.79375 1.12965,-1.4826 -0.60255,-1.04386 -1.84898,0.23668 -1.17254,0.44338 -0.38292,0.26407 -1.13999,-1.48518 0.3545,-0.30179 0.73123,-1.01803 0.70745,-1.72444 -0.85215,-0.85215 -1.72444,0.70694 -1.01803,0.73174 -0.30179,0.3545 -1.48518,-1.13999 0.26407,-0.38292 0.44338,-1.17254 0.23616,-1.84898 -1.04334,-0.60255 -1.4826,1.12965 -0.79427,0.96997 -0.19947,0.42013 -1.72961,-0.71624 0.15607,-0.43873 0.12454,-1.24695 -0.25012,-1.84744 -1.16375,-0.31161 -1.13998,1.47433 -0.51573,1.14257 -0.0842,0.45785 -1.85621,-0.24443 0.0372,-0.46405 -0.20257,-1.23662 -0.71934,-1.71979 z m 0.60255,19.24327 a 2.6458333,2.6458333 0 0 1 2.64583,2.64584 2.6458333,2.6458333 0 0 1 -2.64583,2.64583 2.6458333,2.6458333 0 0 1 -2.64584,-2.64583 2.6458333,2.6458333 0 0 1 2.64584,-2.64584 z"
         inkscape:label="Gear" />
      <path
         id="path1015"
         style="fill:#362840;fill-opacity:1;stroke:none;stroke-width:0.158556"
         d="m 26.931212,167.39831 -0.517173,1.23645 -0.145638,0.88907 0.02675,0.33364 -1.334537,0.17573 -0.06018,-0.32918 -0.37116,-0.82144 -0.819593,-1.05998 -0.83669,0.22403 -0.179817,1.32822 0.08954,0.8965 0.1122,0.31543 -1.24351,0.51494 -0.14341,-0.30205 -0.571043,-0.69737 -1.065914,-0.81216 -0.750121,0.4332 0.169788,1.32934 0.318777,0.843 0.189847,0.2753 -1.067774,0.8196 -0.216973,-0.25487 -0.731542,-0.52609 -1.240166,-0.50825 -0.612653,0.61265 0.508624,1.23979 0.525714,0.73192 0.25487,0.21697 -0.819594,1.06778 -0.275304,-0.18986 -0.843001,-0.31876 -1.329333,-0.17017 -0.433204,0.7505 0.812164,1.06591 0.697362,0.57067 0.302053,0.14378 -0.51494,1.24351 -0.315058,-0.1122 -0.896872,-0.0895 -1.327847,0.17981 -0.224404,0.83669 1.060345,0.8196 0.821082,0.37078 0.329175,0.0605 -0.175734,1.33453 -0.333262,-0.0271 -0.889442,0.14601 -1.23608,0.51717 v 0.8664 l 1.23608,0.51717 0.889442,0.14564 0.333262,-0.0267 0.175734,1.33453 -0.329175,0.0602 -0.821082,0.37079 -1.060345,0.81959 0.224404,0.83706 1.327847,0.17945 0.896872,-0.0892 0.315058,-0.11257 0.51494,1.24387 -0.302053,0.14341 -0.697362,0.57067 -0.812164,1.0663 0.433204,0.75012 1.329333,-0.17016 0.843001,-0.31841 0.275304,-0.19022 0.819594,1.06815 -0.25487,0.2166 -0.525714,0.73191 -0.508624,1.2398 0.612653,0.61265 1.240166,-0.50825 0.731542,-0.52571 0.216973,-0.25487 1.067774,0.81922 -0.189847,0.27567 -0.318777,0.84301 -0.169788,1.32895 0.750121,0.43321 1.065914,-0.81179 0.571043,-0.69736 0.14341,-0.30243 1.24351,0.51531 -0.1122,0.31506 -0.08954,0.89688 0.179817,1.32784 0.83669,0.22441 0.819593,-1.06035 0.37116,-0.82145 0.06018,-0.32881 1.334537,0.17536 -0.02675,0.33364 0.145638,0.88944 0.517173,1.23608 h 0.866411 l 0.517165,-1.23608 0.145638,-0.88944 -0.02675,-0.33364 1.33453,-0.17536 0.06054,0.32881 0.370786,0.82145 0.819593,1.06035 0.836682,-0.22441 0.179825,-1.32784 -0.08954,-0.89688 -0.112208,-0.31506 1.24351,-0.51531 0.14341,0.30242 0.571044,0.69737 1.065921,0.81179 0.750113,-0.43321 -0.169788,-1.32895 -0.31877,-0.84301 -0.189854,-0.27567 1.067776,-0.81923 0.216973,0.25488 0.731916,0.52571 1.239793,0.50825 0.612657,-0.61265 -0.508624,-1.2398 -0.525721,-0.73191 -0.254869,-0.2166 0.8196,-1.06815 0.275302,0.19022 0.843002,0.31841 1.329332,0.17016 0.433205,-0.75012 -0.812166,-1.0663 -0.697364,-0.57067 -0.302054,-0.14341 0.514944,-1.24387 0.315426,0.11257 0.8965,0.0892 1.32785,-0.17945 0.224407,-0.83706 -1.060349,-0.81959 -0.821081,-0.37079 -0.329173,-0.0602 0.175734,-1.33453 0.333264,0.0267 0.889439,-0.14564 1.236076,-0.51717 v -0.8664 l -1.236076,-0.51717 -0.889439,-0.14602 -0.333264,0.0271 -0.175734,-1.33453 0.329173,-0.0605 0.821081,-0.37078 1.060349,-0.8196 -0.224407,-0.83669 -1.32785,-0.17981 -0.8965,0.0895 -0.315426,0.1122 -0.514944,-1.24351 0.302054,-0.14378 0.697364,-0.57067 0.812166,-1.06592 -0.433205,-0.75049 -1.329332,0.17017 -0.843002,0.31876 -0.275302,0.18986 -0.8196,-1.06778 0.254869,-0.21697 0.525721,-0.73192 0.508624,-1.23979 -0.612657,-0.61266 -1.239793,0.50826 -0.731916,0.52609 -0.216973,0.25487 -1.067776,-0.8196 0.189854,-0.2753 0.31877,-0.84301 0.169788,-1.32933 -0.750113,-0.4332 -1.065921,0.81216 -0.571044,0.69737 -0.14341,0.30205 -1.24351,-0.51494 0.112208,-0.31543 0.08954,-0.8965 -0.179825,-1.32822 -0.836682,-0.22404 -0.819593,1.05998 -0.370786,0.82145 -0.06054,0.32918 -1.33453,-0.17574 0.02675,-0.33363 -0.145638,-0.88907 -0.517172,-1.23645 z m 0.433205,13.83502 a 1.9022321,1.9022321 0 0 1 1.90223,1.90224 1.9022321,1.9022321 0 0 1 -1.90223,1.90223 1.9022321,1.9022321 0 0 1 -1.902237,-1.90223 1.9022321,1.9022321 0 0 1 1.902237,-1.90224 z"
         inkscape:label="Gear" />
      <path
         id="path1017"
         style="fill:#362840;fill-opacity:1;stroke:none;stroke-width:0.158556"
         d="m 75.29627,167.82464 -0.517173,1.23645 -0.145638,0.88907 0.02675,0.33364 -1.334537,0.17573 -0.06018,-0.32918 -0.37116,-0.82144 -0.819593,-1.05998 -0.83669,0.22403 -0.179817,1.32822 0.08954,0.8965 0.1122,0.31543 -1.24351,0.51494 -0.14341,-0.30205 -0.571043,-0.69737 -1.065914,-0.81216 -0.750121,0.4332 0.169788,1.32934 0.318777,0.843 0.189847,0.2753 -1.067774,0.8196 -0.216973,-0.25487 -0.731542,-0.52609 -1.240166,-0.50825 -0.612653,0.61265 0.508624,1.23979 0.525714,0.73192 0.25487,0.21697 -0.819594,1.06778 -0.275304,-0.18986 -0.843001,-0.31876 -1.329333,-0.17017 -0.433204,0.7505 0.812164,1.06591 0.697362,0.57067 0.302053,0.14378 -0.51494,1.24351 -0.315058,-0.1122 -0.896872,-0.0895 -1.327847,0.17981 -0.224404,0.83669 1.060345,0.8196 0.821082,0.37078 0.329175,0.0605 -0.175734,1.33453 -0.333262,-0.0271 -0.889442,0.14601 -1.23608,0.51717 v 0.8664 l 1.23608,0.51717 0.889442,0.14564 0.333262,-0.0267 0.175734,1.33453 -0.329175,0.0602 -0.821082,0.37079 -1.060345,0.81959 0.224404,0.83706 1.327847,0.17945 0.896872,-0.0892 0.315058,-0.11257 0.51494,1.24387 -0.302053,0.14341 -0.697362,0.57067 -0.812164,1.0663 0.433204,0.75012 1.329333,-0.17016 0.843001,-0.31841 0.275304,-0.19022 0.819594,1.06815 -0.25487,0.2166 -0.525714,0.73191 -0.508624,1.2398 0.612653,0.61265 1.240166,-0.50825 0.731542,-0.52571 0.216973,-0.25487 1.067774,0.81922 -0.189847,0.27567 -0.318777,0.84301 -0.169788,1.32895 0.750121,0.43321 1.065914,-0.81179 0.571043,-0.69736 0.14341,-0.30243 1.24351,0.51531 -0.1122,0.31506 -0.08954,0.89688 0.179817,1.32784 0.83669,0.22441 0.819593,-1.06035 0.37116,-0.82145 0.06018,-0.32881 1.334537,0.17536 -0.02675,0.33364 0.145638,0.88944 0.517173,1.23608 h 0.866411 l 0.517165,-1.23608 0.145638,-0.88944 -0.02675,-0.33364 1.33453,-0.17536 0.06054,0.32881 0.370786,0.82145 0.819593,1.06035 0.836682,-0.22441 0.179825,-1.32784 -0.08954,-0.89688 -0.112208,-0.31506 1.24351,-0.51531 0.14341,0.30242 0.571044,0.69737 1.065921,0.81179 0.750113,-0.43321 -0.169788,-1.32895 -0.31877,-0.84301 -0.189854,-0.27567 1.067776,-0.81923 0.216973,0.25488 0.731916,0.52571 1.239793,0.50825 0.612657,-0.61265 -0.508624,-1.2398 -0.525721,-0.73191 -0.254869,-0.2166 0.8196,-1.06815 0.275302,0.19022 0.843002,0.31841 1.329332,0.17016 0.433205,-0.75012 -0.812166,-1.0663 -0.697364,-0.57067 -0.302054,-0.14341 0.514944,-1.24387 0.315426,0.11257 0.8965,0.0892 1.32785,-0.17945 0.224407,-0.83706 -1.060349,-0.81959 -0.821081,-0.37079 -0.329173,-0.0602 0.175734,-1.33453 0.333264,0.0267 0.889439,-0.14564 1.236076,-0.51717 v -0.8664 l -1.236076,-0.51717 -0.889439,-0.14602 -0.333264,0.0271 -0.175734,-1.33453 0.329173,-0.0605 0.821081,-0.37078 1.060349,-0.8196 -0.224407,-0.83669 -1.32785,-0.17981 -0.8965,0.0895 -0.315426,0.1122 -0.514944,-1.24351 0.302054,-0.14378 0.697364,-0.57067 0.812166,-1.06592 -0.433205,-0.75049 -1.329332,0.17017 -0.843002,0.31876 -0.275302,0.18986 -0.8196,-1.06778 0.254869,-0.21697 0.525721,-0.73192 0.508624,-1.23979 -0.612657,-0.61266 -1.239793,0.50826 -0.731916,0.52609 -0.216973,0.25487 -1.067776,-0.8196 0.189854,-0.2753 0.31877,-0.84301 0.169788,-1.32933 -0.750113,-0.4332 -1.065921,0.81216 -0.571044,0.69737 -0.14341,0.30205 -1.24351,-0.51494 0.112208,-0.31543 0.08954,-0.8965 -0.179825,-1.32822 -0.836682,-0.22404 -0.819593,1.05998 -0.370786,0.82145 -0.06054,0.32918 -1.33453,-0.17574 0.02675,-0.33363 -0.145638,-0.88907 -0.517172,-1.23645 z m 0.433205,13.83502 a 1.9022321,1.9022321 0 0 1 1.90223,1.90224 1.9022321,1.9022321 0 0 1 -1.90223,1.90223 1.9022321,1.9022321 0 0 1 -1.902237,-1.90223 1.9022321,1.9022321 0 0 1 1.902237,-1.90224 z"
         inkscape:label="Gear" />
      <path
         id="path2146"
         style="fill:#44324e;fill-opacity:1;stroke:none;stroke-width:0.158557"
         d="M 7.1478782,75.149071 5.743161,78.523782 5.3475851,80.95037 5.4202281,81.860977 1.7954286,82.340613 1.6319804,81.442178 0.62385457,79.200145 -1.6022824,76.307099 l -2.2725745,0.611463 -0.4884105,3.62518 0.2431998,2.44687 0.3047518,0.860916 -3.3775603,1.405454 -0.3895222,-0.824411 -1.5510397,-1.903346 -2.895181,-2.216682 -2.03744,1.182367 0.46117,3.628222 0.865846,2.300846 0.515653,0.751401 -2.900233,2.236963 -0.589333,-0.695628 -1.986978,-1.435874 -3.368476,-1.387203 -1.664055,1.672145 1.381498,3.383839 1.427918,1.997652 0.692264,0.592197 -2.22614,2.914341 -0.747766,-0.518173 -2.289717,-0.870044 -3.610668,-0.464428 -1.176644,2.048352 2.205957,2.909272 1.894139,1.55756 0.820422,0.39243 -1.398654,3.39398 -0.855744,-0.30623 -2.43604,-0.24439 -3.606631,0.4908 -0.609515,2.2836 2.880058,2.23696 2.230179,1.01202 0.894089,0.16528 -0.47732,3.64242 -0.905188,-0.074 -2.415859,0.39851 -3.357375,1.41154 v 2.36472 l 3.357375,1.41154 2.415859,0.39751 0.905188,-0.073 0.47732,3.64242 -0.894089,0.16428 -2.230179,1.01201 -2.880058,2.23697 0.609515,2.28461 3.606631,0.48979 2.43604,-0.24337 0.855744,-0.30725 1.398654,3.39497 -0.820422,0.39143 -1.894139,1.55755 -2.205957,2.9103 1.176644,2.04735 3.610668,-0.46443 2.289717,-0.86905 0.747766,-0.51917 2.22614,2.91537 -0.692264,0.59116 -1.427918,1.99765 -1.381498,3.38385 1.664055,1.67213 3.368476,-1.38719 1.986978,-1.43485 0.589333,-0.69563 2.900233,2.23593 -0.515653,0.75242 -0.865846,2.30085 -0.46117,3.6272 2.03744,1.18237 2.895181,-2.21567 1.5510397,-1.90333 0.3895222,-0.82544 3.3775603,1.40646 -0.3047518,0.85991 -0.2431998,2.44789 0.4884105,3.62416 2.2725745,0.61249 2.22613697,-2.89409 1.00812583,-2.24202 0.1634482,-0.89743 3.6247995,0.47863 -0.072643,0.9106 0.3955759,2.42761 1.4047172,3.3737 h 2.3533026 l 1.4046962,-3.3737 0.395577,-2.42761 -0.07265,-0.9106 3.624781,-0.47863 0.164424,0.89743 1.00711,2.24202 2.226137,2.89409 2.272556,-0.61249 0.48843,-3.62416 -0.2432,-2.44789 -0.304771,-0.85991 3.377558,-1.40646 0.389522,0.82541 1.551039,1.90336 2.895201,2.21567 2.037418,-1.18237 -0.461168,-3.6272 -0.865828,-2.30085 -0.515671,-0.75242 2.900239,-2.23595 0.589331,0.69565 1.987995,1.43485 3.367462,1.38719 1.664067,-1.67213 -1.381498,-3.38385 -1.427936,-1.99765 -0.692263,-0.59119 2.226156,-2.91534 0.747761,0.51917 2.289719,0.86905 3.610665,0.46443 1.176652,-2.04735 -2.205966,-2.9103 -1.894145,-1.55755 -0.820425,-0.39143 1.398665,-3.39497 0.856745,0.30725 2.435029,0.24337 3.606639,-0.48979 0.609522,-2.28461 -2.880065,-2.23697 -2.230179,-1.01201 -0.894084,-0.16428 0.47732,-3.64242 0.905194,0.073 2.41585,-0.39751 3.357367,-1.41154 v -2.36472 l -3.357367,-1.41154 -2.41585,-0.39852 -0.905194,0.074 -0.47732,-3.64241 0.894084,-0.16529 2.230179,-1.01201 2.880065,-2.23696 -0.609522,-2.2836 -3.606639,-0.49081 -2.435029,0.24439 -0.856745,0.30623 -1.398665,-3.39397 0.820425,-0.39244 1.894145,-1.55756 2.205966,-2.909266 -1.176652,-2.048353 -3.610665,0.464429 -2.289719,0.870043 -0.747761,0.518173 -2.226156,-2.91434 0.692263,-0.592197 1.427936,-1.997652 1.381498,-3.38384 -1.664067,-1.672144 -3.367462,1.387203 -1.987995,1.435874 -0.589331,0.695629 -2.900239,-2.236965 0.515671,-0.751399 0.865828,-2.300848 0.461168,-3.628222 -2.037418,-1.182367 -2.895201,2.216683 -1.551039,1.903347 -0.389522,0.82441 -3.377558,-1.405452 0.30477,-0.860919 0.243201,-2.446868 -0.488431,-3.62518 -2.272555,-0.611464 -2.226138,2.893046 -1.007109,2.242034 -0.164425,0.898436 -3.624781,-0.479638 0.07265,-0.910607 -0.395577,-2.426587 -1.4047163,-3.374711 z m 1.1766509,37.760679 a 5.1667465,5.1918652 0 0 1 5.1667399,5.19188 5.1667465,5.1918652 0 0 1 -5.1667399,5.19185 5.1667465,5.1918652 0 0 1 -5.1667582,-5.19185 5.1667465,5.1918652 0 0 1 5.1667582,-5.19188 z"
         inkscape:label="Gear" />
      <path
         id="path1021"
         style="fill:#44324e;fill-opacity:1;stroke:none;stroke-width:0.158556"
         d="m 111.5312,-13.64622 -0.52615,1.25793 -0.14817,0.904516 0.0272,0.33943 -1.35772,0.178786 -0.0612,-0.334894 -0.37761,-0.835722 -0.83383,-1.078389 -0.85122,0.227924 -0.18295,1.351294 0.0911,0.912075 0.11416,0.320908 -1.26512,0.5238864 -0.1459,-0.3073014 -0.58096,-0.709476 -1.08444,-0.826272 -0.76315,0.440729 0.17274,1.3524274 0.32431,0.8576453 0.19315,0.280086 -1.08632,0.8338327 -0.22075,-0.2592968 -0.74425,-0.5352252 -1.26171,-0.517082 -0.62329,0.6232949 0.51746,1.2613331 0.53484,0.7446288 0.2593,0.2207424 -0.83383,1.0863264 -0.28009,-0.1931502 -0.857644,-0.3243104 -1.352427,-0.1731167 -0.440729,0.7635278 0.826273,1.0844366 0.709476,0.5805835 0.307301,0.1462798 -0.523886,1.2651126 -0.320531,-0.1141511 -0.912453,-0.091094 -1.350915,0.1829443 -0.228302,0.8512201 1.078766,0.83383282 0.835345,0.37722803 0.334894,0.061612 L 98.463151,1.276591 98.1241,1.248998 97.219206,1.3975457 95.961653,1.9236994 V 2.805158 l 1.257553,0.5261538 0.904894,0.1481698 0.339051,-0.027215 0.178787,1.3577188 -0.334894,0.061234 -0.835345,0.3772281 -1.078766,0.8338328 0.228302,0.8515977 1.350915,0.182566 0.912453,-0.09072 0.320531,-0.114529 0.523886,1.26549 -0.307301,0.1459024 -0.709476,0.580584 -0.826273,1.084814 0.440729,0.7631496 1.352427,-0.173116 0.857644,-0.323933 0.28009,-0.193528 0.83383,1.086705 -0.2593,0.220365 -0.53484,0.744628 -0.51746,1.261333 0.62329,0.623296 1.26171,-0.517083 0.74425,-0.534847 0.22075,-0.259297 1.08632,0.833455 -0.19315,0.280464 -0.32431,0.857646 -0.17274,1.352049 0.76315,0.440729 1.08444,-0.825895 0.58096,-0.709476 0.1459,-0.307679 1.26512,0.524264 -0.11416,0.320531 -0.0911,0.912453 0.18295,1.350915 0.85122,0.228302 0.83383,-1.078766 0.37761,-0.835723 0.0612,-0.334516 1.35772,0.178409 -0.0272,0.33943 0.14817,0.904893 0.52615,1.257553 h 0.88146 l 0.52615,-1.257554 0.14817,-0.904893 -0.0272,-0.33943 1.35772,-0.178409 0.0616,0.334516 0.37723,0.835723 0.83383,1.078766 0.85122,-0.228302 0.18295,-1.350915 -0.0911,-0.912453 -0.11415,-0.32053 1.26511,-0.524265 0.1459,0.30768 0.58096,0.709475 1.08444,0.825895 0.76315,-0.440729 -0.17274,-1.352049 -0.32431,-0.857645 -0.19315,-0.280465 1.08633,-0.833455 0.22074,0.259298 0.74463,0.534847 1.26133,0.517082 0.6233,-0.623296 -0.51746,-1.261332 -0.53485,-0.744629 -0.2593,-0.220364 0.83383,-1.086706 0.28009,0.193528 0.85765,0.323933 1.35242,0.173116 0.44073,-0.7631496 -0.82627,-1.084814 -0.70948,-0.580583 -0.3073,-0.1459024 0.52389,-1.265491 0.32091,0.11453 0.91207,0.09072 1.35092,-0.182567 0.2283,-0.8515972 -1.07877,-0.8338328 -0.83534,-0.377228 -0.3349,-0.061234 0.17879,-1.3577187 0.33905,0.027215 0.9049,-0.1481697 1.25755,-0.5261538 v -0.881459 l -1.25755,-0.5261537 -0.90489,-0.1485478 -0.33905,0.027593 -0.17879,-1.35771875 0.33489,-0.061612 0.83535,-0.37722813 1.07877,-0.83383282 -0.22831,-0.8512201 -1.35091,-0.1829442 -0.91208,0.091094 -0.32091,0.1141512 -0.52388,-1.2651127 0.3073,-0.1462798 0.70948,-0.5805835 0.82627,-1.0844368 -0.44073,-0.7635278 -1.35243,0.1731166 -0.85764,0.3243105 -0.28009,0.1931502 -0.83383,-1.0863264 0.25929,-0.2207425 0.53485,-0.7446287 0.51746,-1.2613331 -0.62329,-0.6232951 -1.26134,0.5170821 -0.74462,0.5352252 -0.22075,0.2592969 -1.08632,-0.8338328 0.19315,-0.2800859 0.32431,-0.8576455 0.17274,-1.3524274 -0.76315,-0.440729 -1.08444,0.826272 -0.58096,0.709476 -0.1459,0.3073014 -1.26512,-0.5238854 0.11415,-0.320909 0.0911,-0.912075 -0.18294,-1.351293 -0.85122,-0.227924 -0.83383,1.078388 -0.37723,0.835722 -0.0616,0.334894 -1.35772,-0.178786 0.0272,-0.33943 -0.14817,-0.904515 -0.52615,-1.25793 z m 0.44073,14.07536985 a 1.9352783,1.9352783 0 0 1 1.93528,1.93527825 1.9352783,1.9352783 0 0 1 -1.93528,1.9352783 1.9352783,1.9352783 0 0 1 -1.93528,-1.9352783 1.9352783,1.9352783 0 0 1 1.93528,-1.93527825 z"
         inkscape:label="Gear" />
    </g>
    <rect
       style="fill:#513c5e;fill-opacity:1;stroke:#36283e;stroke-width:2;stroke-linecap:round;stroke-linejoin:round;stroke-dasharray:none;stroke-opacity:1"
       id="rect234"
       width="212"
       height="317.5"
       x="13.229164"
       y="38.100018"
       inkscape:label="Background"
       ry="5.4932985"
       rx="5.493299"
       sodipodi:insensitive="true" />
    <circle
       style="fill:#725382;fill-opacity:1;stroke:none;stroke-width:1;stroke-linecap:round;stroke-linejoin:round;stroke-dasharray:none;stroke-opacity:1"
       id="path11685"
       cx="82.919083"
       cy="168.87798"
       inkscape:label="IconBackground"
       r="72.5"
       transform="rotate(-12)" />
    <text
       xml:space="preserve"
       style="font-style:normal;font-variant:normal;font-weight:normal;font-stretch:normal;font-size:17.6389px;line-height:1.25;font-family:'Times New Roman';-inkscape-font-specification:'Times New Roman, Normal';font-variant-ligatures:normal;font-variant-caps:normal;font-variant-numeric:normal;font-variant-east-asian:normal;fill:#4e3959;fill-opacity:1;stroke-width:0.264583"
       id="text1129"
       transform="rotate(24,116.19804,132.66551)"
       inkscape:label="ClockMarks"
       sodipodi:insensitive="true"><textPath
         xlink:href="#path1184"
         id="textPath1186"><tspan
           id="tspan1127"
           style="font-style:normal;font-variant:normal;font-weight:normal;font-stretch:normal;font-size:17.6389px;font-family:'Times New Roman';-inkscape-font-specification:'Times New Roman, Normal';font-variant-ligatures:normal;font-variant-caps:normal;font-variant-numeric:normal;font-variant-east-asian:normal;fill:#4e3959;fill-opacity:1;stroke-width:0.264583">XII  I  II  III  IV  V  VI  VII  VIII  IX  X  XI</tspan></textPath></text>
    <rect
       style="fill:#242231;fill-opacity:1;stroke-width:1;stroke-linecap:round;stroke-linejoin:round"
       id="rect1676"
       width="195"
       height="50.763565"
       x="21.5625"
       y="46.398582"
       inkscape:label="TitleBox"
       ry="5.4932985"
       rx="5.4932995" />
    <rect
       style="fill:#242231;fill-opacity:1;stroke-width:0.999999;stroke-linecap:round;stroke-linejoin:round"
       id="rect4746"
       width="195"
       height="89.906403"
       x="21.5625"
       y="203.60222"
       rx="5.4932985"
       ry="5.4932985"
       inkscape:label="EffectBox" />
    <rect
       style="fill:#242231;fill-opacity:1;stroke-width:1;stroke-linecap:round;stroke-linejoin:round"
       id="rect4748"
       width="194.99998"
       height="47.41618"
       x="21.562508"
       y="296.70288"
       rx="5.4932985"
       ry="5.4932981"
       inkscape:label="FlavorBox" />
    <path
       style="display:none;fill:#4e3959;fill-opacity:1;stroke:none;stroke-width:0.264583px;stroke-linecap:butt;stroke-linejoin:miter;stroke-opacity:1"
       d="m 50.29831,38.151186 c 0,0 -16.889416,-2.815455 -22.698337,-9.265799 C 21.440335,22.0456 18.567255,2.7908622 18.567255,2.7908622 c 0,0 -11.100911,16.5520288 -12.5454424,26.0945248 -0.9515206,6.285693 2.566856,11.65395 3.9969174,15.010495 1.998278,4.690225 2.906111,5.964913 3.342165,8.386759 0.264394,1.468443 6.39797,-3.721941 14.178015,-6.506087 10.591865,-3.790377 22.7594,-7.625368 22.7594,-7.625368 z m 131.841,0 c 0,0 16.88941,-2.815455 22.69833,-9.265799 6.15964,-6.839787 9.03272,-26.0945248 9.03272,-26.0945248 0,0 11.10091,16.5520288 12.54544,26.0945248 0.95152,6.285693 -2.56685,11.65395 -3.99691,15.010495 -1.99828,4.690225 -2.90611,5.964913 -3.34217,8.386759 -0.26439,1.468443 -6.39797,-3.721941 -14.17801,-6.506087 -10.59187,-3.790377 -22.7594,-7.625368 -22.7594,-7.625368 z"
       id="path6514"
       sodipodi:nodetypes="cscssssc"
       inkscape:path-effect="#path-effect7242"
       inkscape:original-d="m 50.29831,38.151186 c 0,0 -16.889416,-2.815455 -22.698337,-9.265799 C 21.440335,22.0456 18.567255,2.7908622 18.567255,2.7908622 c 0,0 -11.100911,16.5520288 -12.5454424,26.0945248 -0.9515206,6.285693 2.566856,11.65395 3.9969174,15.010495 1.998278,4.690225 2.906111,5.964913 3.342165,8.386759 0.264394,1.468443 6.39797,-3.721941 14.178015,-6.506087 10.591865,-3.790377 22.7594,-7.625368 22.7594,-7.625368 z"
       class="UnoptimicedTransforms"
       inkscape:label="Horns" />
    <circle
       style="display:none;fill:#44324e;fill-opacity:1;stroke:none;stroke-width:0.999998;stroke-linecap:round;stroke-linejoin:round"
       id="path1184"
       cy="83.694"
       cx="-173.21274"
       r="54.983871"
       transform="rotate(-104)" />
    <path
       style="fill:#4e3959;fill-opacity:1;stroke:none;stroke-width:0.264583px;stroke-linecap:butt;stroke-linejoin:miter;stroke-opacity:1"
       d="m 114.61185,148.76373 13.15424,-4.51636 40.51503,6.02181 -39.46269,4.01454 z"
       id="path2140"
       inkscape:label="BigHand" />
    <path
       style="fill:#4e3959;fill-opacity:1;stroke:none;stroke-width:0.264583px;stroke-linecap:butt;stroke-linejoin:miter;stroke-opacity:1"
       d="m 115.24454,148.97275 -11.4023,-7.2006 -25.847311,-31.44958 29.771761,26.03691 z"
       id="path2142"
       inkscape:label="SmallHand" />
  </g>
</svg>
