<?xml version="1.0" encoding="UTF-8" standalone="no"?>
<!-- Created with Inkscape (http://www.inkscape.org/) -->

<svg
   width="88.394699mm"
   height="70.36776mm"
   viewBox="0 0 44.197349 35.18388"
   version="1.1"
   id="svg3531"
   inkscape:version="1.2.1 (9c6d41e410, 2022-07-14)"
   sodipodi:docname="bison_skull.svg"
   xml:space="preserve"
   xmlns:inkscape="http://www.inkscape.org/namespaces/inkscape"
   xmlns:sodipodi="http://sodipodi.sourceforge.net/DTD/sodipodi-0.dtd"
   xmlns="http://www.w3.org/2000/svg"
   xmlns:svg="http://www.w3.org/2000/svg"><sodipodi:namedview
     id="namedview3533"
     pagecolor="#505050"
     bordercolor="#eeeeee"
     borderopacity="1"
     inkscape:showpageshadow="0"
     inkscape:pageopacity="0"
     inkscape:pagecheckerboard="0"
     inkscape:deskcolor="#505050"
     inkscape:document-units="mm"
     showgrid="false"
     inkscape:zoom="1.0544997"
     inkscape:cx="124.70368"
     inkscape:cy="100.5216"
     inkscape:window-width="1920"
     inkscape:window-height="1017"
     inkscape:window-x="1912"
     inkscape:window-y="-8"
     inkscape:window-maximized="1"
     inkscape:current-layer="layer1" /><defs
     id="defs3528" /><g
     inkscape:label="Layer 1"
     inkscape:groupmode="layer"
     id="layer1"
     transform="translate(-68.496279,-101.4299)"><path
       style="fill:#bcbcbc;fill-opacity:1;stroke:none;stroke-width:0.132292px;stroke-linecap:butt;stroke-linejoin:miter;stroke-opacity:1"
       d="m 97.540816,114.85353 c 0,0 2.03912,-2.36147 2.320906,-3.82636 0.408428,-2.12322 -0.271259,-4.38754 -1.066362,-6.39818 -0.471296,-1.19181 -2.132726,-3.19909 -2.132726,-3.19909 0,0 3.681346,1.18353 4.892726,2.57182 1.6525,1.89383 2.44686,4.57784 2.57181,7.08817 0.13941,2.80092 -2.07,8.15454 -2.07,8.15454 z"
       id="path2127"
       sodipodi:nodetypes="caacsscc" /><path
       style="display:inline;fill:#e7e7e7;fill-opacity:1;stroke:none;stroke-width:0.132292px;stroke-linecap:butt;stroke-linejoin:miter;stroke-opacity:1"
       d="m 83.206091,119.4857 c 0.852991,-1.46852 1.477805,-2.17574 2.927419,-3.06048 1.830442,-1.11716 5.220991,-1.27113 7.362903,-1.375 1.90885,-0.0926 3.182797,-0.81589 4.967742,-0.13307 1.263884,0.48349 1.794945,1.19121 3.016125,1.7742 0.76508,1.00333 0.74436,2.92114 1.375,3.59273 0.82996,0.83882 1.40734,1.54346 2.18138,2.43414 1.13854,1.97461 0.66275,3.92939 2.06592,5.57664 1.01815,0.93851 5.21239,6.16715 5.46657,6.70866 0.2775,0.97552 0.30714,0.56262 -2.29148,1.45442 -1.77638,0.60962 -6.26821,-3.62513 -7.6095,-3.35397 -0.85327,0.15239 -2.59005,0.79912 -3.292163,0.90086 -0.702118,0.10174 -4.587153,-2.19128 -5.346041,-2.25119 -2.089481,-0.16495 -4.806669,0.87031 -6.299691,0.0627 -1.735594,-0.93879 -2.390803,-0.60609 -3.326613,-2.12903 -0.927429,-1.50931 -1.887377,-2.45956 -2.350807,-4.16935 -0.286638,-1.05753 -0.03757,-2.20787 0.17742,-3.28226 0.190847,-0.95376 0.487276,-1.90892 0.975816,-2.75 z"
       id="path370"
       sodipodi:nodetypes="sssscccccsczssssss" /><path
       style="fill:#bcbcbc;fill-opacity:1;stroke:none;stroke-width:0.132292px;stroke-linecap:butt;stroke-linejoin:miter;stroke-opacity:1"
       d="m 91.312264,122.78187 c -0.877859,-0.13459 -2.961012,0.65141 -3.094076,1.09496 -0.133064,0.44355 -1.175199,2.45444 -0.798387,3.63709 0.2669,0.83769 1.17815,1.35622 1.951613,1.7742 0.779236,0.4211 1.705649,0.84688 2.572581,0.66532 1.030594,-0.21584 2.144227,-0.95494 2.483871,-1.95161 0.388643,-1.14046 -0.313846,-2.44428 -0.887098,-3.50403 -0.477928,-0.88353 -1.235598,-1.5637 -2.228504,-1.71593 z"
       id="path1022"
       sodipodi:nodetypes="ssssssss" /><path
       style="fill:#bcbcbc;fill-opacity:1;stroke:none;stroke-width:0.132292px;stroke-linecap:butt;stroke-linejoin:miter;stroke-opacity:1"
       d="m 82.486284,121.37716 c 0,0 -3.446793,0.84057 -5.206358,0.87818 -1.011215,0.0216 -2.142058,0.14145 -3.010907,-0.37636 -0.927052,-0.5525 -1.718506,-1.56778 -1.881816,-2.63455 -0.752434,-4.91506 4.641814,-14.17635 4.641814,-14.17635 0,0 -4.290025,3.05484 -5.730626,5.19242 -1.956792,2.90351 -2.848277,6.23564 -2.800275,9.73666 0.03178,2.31777 1.367839,4.7004 3.010906,6.33545 1.257782,1.25165 3.195418,1.40525 4.95545,1.63091 2.69483,0.34551 6.838572,-0.40235 6.838572,-0.40235 -0.271818,-1.00364 1.732192,-3.32992 0.31233,-5.11765 z"
       id="path2124"
       sodipodi:nodetypes="cssscssssccc" /><path
       style="fill:#bcbcbc;fill-opacity:1;stroke:none;stroke-width:0.132292px;stroke-linecap:butt;stroke-linejoin:miter;stroke-opacity:1"
       d="m 96.131021,132.71774 c 0,0 4.329099,-2.05462 4.639589,-2.01027 0.31048,0.0444 9.40322,5.76613 9.40322,5.76613 l -0.82893,0.14018 -1.96542,-0.93856 -4.39114,-2.41734 -3.630838,0.87517 z"
       id="path2131"
       sodipodi:nodetypes="cccccccc" /></g></svg>
