<?xml version="1.0" encoding="UTF-8" standalone="no"?>
<!-- Created with Inkscape (http://www.inkscape.org/) -->

<svg
   width="90.327187mm"
   height="86.814468mm"
   viewBox="0 0 45.163593 43.407234"
   version="1.1"
   id="svg3531"
   inkscape:version="1.2.1 (9c6d41e410, 2022-07-14)"
   sodipodi:docname="ribs.svg"
   xml:space="preserve"
   xmlns:inkscape="http://www.inkscape.org/namespaces/inkscape"
   xmlns:sodipodi="http://sodipodi.sourceforge.net/DTD/sodipodi-0.dtd"
   xmlns="http://www.w3.org/2000/svg"
   xmlns:svg="http://www.w3.org/2000/svg"><sodipodi:namedview
     id="namedview3533"
     pagecolor="#505050"
     bordercolor="#eeeeee"
     borderopacity="1"
     inkscape:showpageshadow="0"
     inkscape:pageopacity="0"
     inkscape:pagecheckerboard="0"
     inkscape:deskcolor="#505050"
     inkscape:document-units="mm"
     showgrid="false"
     inkscape:zoom="1.4912878"
     inkscape:cx="-4.6939296"
     inkscape:cy="100.58421"
     inkscape:window-width="1920"
     inkscape:window-height="1017"
     inkscape:window-x="1912"
     inkscape:window-y="-8"
     inkscape:window-maximized="1"
     inkscape:current-layer="layer1" /><defs
     id="defs3528" /><g
     inkscape:label="Layer 1"
     inkscape:groupmode="layer"
     id="layer1"
     transform="translate(-70.254478,-97.352635)"><path
       style="fill:#a5a5a5;fill-opacity:1;stroke:none;stroke-width:0.132292px;stroke-linecap:butt;stroke-linejoin:miter;stroke-opacity:1"
       d="m 79.698906,112.35179 -4.476686,6.91213 3.498268,6.72526 1.168446,-0.0865 -3.368356,-6.63877 c 0.392416,-1.17199 3.323087,-6.14976 3.323087,-6.14976 z"
       id="path1787"
       sodipodi:nodetypes="ccccccc" /><path
       style="fill:#a5a5a5;fill-opacity:1;stroke:none;stroke-width:0.132292px;stroke-linecap:butt;stroke-linejoin:miter;stroke-opacity:1"
       d="m 82.329467,110.96444 0.06273,0.50182 4.108634,1.44272 -0.06273,7.59 0.925688,-0.17612 0.03675,-7.91569 z"
       id="path1789"
       sodipodi:nodetypes="ccccccc" /><path
       style="fill:#919191;fill-opacity:1;stroke:none;stroke-width:0.132292px;stroke-linecap:butt;stroke-linejoin:miter;stroke-opacity:1"
       d="m 84.376499,115.5359 -4.186537,5.45122 2.988624,5.53431 0.998222,-0.0712 -2.877639,-5.46314 c 0.335247,-0.96445 3.147411,-4.61183 3.147411,-4.61183 z"
       id="path1791"
       sodipodi:nodetypes="ccccccc" /><path
       style="fill:#919191;fill-opacity:1;stroke:none;stroke-width:0.132292px;stroke-linecap:butt;stroke-linejoin:miter;stroke-opacity:1"
       d="m 86.003607,113.63464 0.281652,0.6766 3.54019,1.44631 -0.05359,6.24592 0.79083,-0.14493 0.0314,-6.51394 z"
       id="path1793"
       sodipodi:nodetypes="ccccccc" /><path
       style="fill:#a5a5a5;fill-opacity:1;stroke:none;stroke-width:0.132292px;stroke-linecap:butt;stroke-linejoin:miter;stroke-opacity:1"
       d="m 89.004623,117.85849 -3.935628,5.16895 2.988624,5.53431 0.998222,-0.0712 -2.877639,-5.46314 c 0.335247,-0.96445 2.70832,-4.23547 2.70832,-4.23547 z"
       id="path1911"
       sodipodi:nodetypes="ccccccc" /><path
       style="fill:#a5a5a5;fill-opacity:1;stroke:none;stroke-width:0.132292px;stroke-linecap:butt;stroke-linejoin:miter;stroke-opacity:1"
       d="m 91.259003,116.6786 0.626652,0.61387 2.818827,0.5054 -0.05359,6.24592 0.79083,-0.14493 0.0314,-6.51394 z"
       id="path1913"
       sodipodi:nodetypes="ccccccc" /><path
       style="fill:#bcbcbc;fill-opacity:1;stroke:none;stroke-width:0.132292px;stroke-linecap:butt;stroke-linejoin:miter;stroke-opacity:1"
       d="m 93.104825,120.38492 -2.003572,4.69963 2.173194,4.09817 0.725863,-0.0527 -2.092491,-4.04547 c 0.243777,-0.71418 1.467511,-4.06992 1.467511,-4.06992 z"
       id="path1915"
       sodipodi:nodetypes="ccccccc" /><path
       style="fill:#bcbcbc;fill-opacity:1;stroke:none;stroke-width:0.132292px;stroke-linecap:butt;stroke-linejoin:miter;stroke-opacity:1"
       d="m 95.459863,119.96439 0.355931,0.63462 2.291956,0.61304 -0.03897,4.62511 0.575057,-0.10732 0.02283,-4.82358 z"
       id="path1917"
       sodipodi:nodetypes="ccccccc" /></g></svg>
