<?xml version="1.0" encoding="UTF-8" standalone="no"?>
<!-- Created with Inkscape (http://www.inkscape.org/) -->

<svg
   width="90.327187mm"
   height="86.814468mm"
   viewBox="0 0 45.163593 43.407234"
   version="1.1"
   id="svg3531"
   inkscape:version="1.2.1 (9c6d41e410, 2022-07-14)"
   sodipodi:docname="skull.svg"
   xml:space="preserve"
   xmlns:inkscape="http://www.inkscape.org/namespaces/inkscape"
   xmlns:sodipodi="http://sodipodi.sourceforge.net/DTD/sodipodi-0.dtd"
   xmlns="http://www.w3.org/2000/svg"
   xmlns:svg="http://www.w3.org/2000/svg"><sodipodi:namedview
     id="namedview3533"
     pagecolor="#505050"
     bordercolor="#eeeeee"
     borderopacity="1"
     inkscape:showpageshadow="0"
     inkscape:pageopacity="0"
     inkscape:pagecheckerboard="0"
     inkscape:deskcolor="#505050"
     inkscape:document-units="mm"
     showgrid="false"
     inkscape:zoom="0.37282196"
     inkscape:cx="-706.77167"
     inkscape:cy="77.785117"
     inkscape:window-width="1920"
     inkscape:window-height="1057"
     inkscape:window-x="1912"
     inkscape:window-y="-8"
     inkscape:window-maximized="1"
     inkscape:current-layer="layer1" /><defs
     id="defs3528" /><g
     inkscape:label="Layer 1"
     inkscape:groupmode="layer"
     id="layer1"
     transform="translate(-70.254478,-97.352635)"><path
       style="display:inline;fill:#e7e7e7;fill-opacity:1;stroke:none;stroke-width:0.132292px;stroke-linecap:butt;stroke-linejoin:miter;stroke-opacity:1"
       d="m 76.198026,115.00586 c 0.852991,-1.46852 1.876999,-2.97413 3.326613,-3.85887 1.830442,-1.11716 4.11212,-1.40419 6.254032,-1.50806 1.90885,-0.0926 3.892474,0.11556 5.677419,0.79838 1.263884,0.48349 2.149785,1.67911 3.370969,2.2621 0.76809,0.36669 1.653215,0.48816 2.350805,0.9758 0.700426,0.48962 1.040061,1.21106 1.64113,1.81855 0.829958,0.83882 2.020316,1.28271 2.794356,2.17339 0.60387,0.69486 1.31796,1.49616 0.97581,2.35081 -0.15474,0.38652 -0.50872,0.10015 -0.79839,0.39919 -0.4466,0.46108 -0.62854,1.23658 -0.48791,1.8629 0.13106,0.58367 0.99314,2.68394 1.24732,3.22545 0.2775,0.97552 -0.69649,3.44807 -3.295115,4.33987 -1.776377,0.60962 -5.013659,-0.23786 -6.354952,0.0333 -1.602663,0.28624 -4.432656,0.71681 -6.055631,0.58868 -2.089481,-0.16495 -4.451831,-0.28292 -5.944853,-1.0905 -1.735594,-0.93879 -3.18919,-1.75931 -4.125,-3.28225 -0.927429,-1.50931 -1.266409,-3.34666 -1.729839,-5.05645 -0.286638,-1.05753 -0.03757,-2.20787 0.17742,-3.28226 0.190847,-0.95376 0.487276,-1.90892 0.975816,-2.75 z"
       id="path370"
       sodipodi:nodetypes="ssssssssssscscssssss" /><path
       style="fill:#bcbcbc;fill-opacity:1;stroke:none;stroke-width:0.132292px;stroke-linecap:butt;stroke-linejoin:miter;stroke-opacity:1"
       d="m 87.763876,118.65687 c -0.877859,-0.13459 -2.961012,0.65141 -3.094076,1.09496 -0.133064,0.44355 -1.175199,2.45444 -0.798387,3.63709 0.2669,0.83769 1.17815,1.35622 1.951613,1.7742 0.779236,0.4211 1.705649,0.84688 2.572581,0.66532 1.030594,-0.21584 2.144227,-0.95494 2.483871,-1.95161 0.388643,-1.14046 -0.313846,-2.44428 -0.887098,-3.50403 -0.477928,-0.88353 -1.235598,-1.5637 -2.228504,-1.71593 z"
       id="path1022"
       sodipodi:nodetypes="ssssssss" /><path
       style="fill:#bcbcbc;fill-opacity:1;stroke:none;stroke-width:0.132292px;stroke-linecap:butt;stroke-linejoin:miter;stroke-opacity:1"
       d="m 92.520606,114.96151 c -0.307993,0.809 -0.173088,1.88655 0.354839,2.57258 0.537542,0.69852 1.439847,0.59315 2.306452,0.75403 1.003445,0.18628 2.232557,0.52109 3.193548,0.17743 0.387061,-0.13842 0.884245,-0.3533 0.975807,-0.75404 0.20619,-0.90243 -0.720607,-1.71895 -1.241936,-2.48387 -0.448093,-0.65747 -0.856267,-1.12832 -1.596775,-1.41935 -0.773647,-0.30405 -1.739648,-0.25535 -2.506047,0.0665 -0.609161,0.25584 -1.250811,0.46922 -1.485888,1.08669 z"
       id="path1024"
       sodipodi:nodetypes="ssssssssss" /><path
       style="fill:#bcbcbc;stroke:none;stroke-width:0.132292px;stroke-linecap:butt;stroke-linejoin:miter;stroke-opacity:1;fill-opacity:1"
       d="m 93.806897,118.73167 -0.08871,1.06451 0.665323,1.15323 c 0,0 0.177419,1.24193 0.177419,1.41935 0,0.17742 0.975807,1.7742 0.975807,1.7742 l 1.596773,0.4879 2.084677,-1.46371 -0.221773,-1.59677 -1.153226,-1.59678 -2.084677,-1.10887 -1.419355,-0.57661 z"
       id="path1026" /></g></svg>
