<?xml version="1.0" encoding="UTF-8" standalone="no"?>
<!-- Created with Inkscape (http://www.inkscape.org/) -->

<svg
   width="744.69238"
   height="572.24573"
   viewBox="0 0 58.272293 44.778316"
   version="1.1"
   id="svg5"
   inkscape:version="1.2.1 (9c6d41e410, 2022-07-14)"
   sodipodi:docname="tree.svg"
   xmlns:inkscape="http://www.inkscape.org/namespaces/inkscape"
   xmlns:sodipodi="http://sodipodi.sourceforge.net/DTD/sodipodi-0.dtd"
   xmlns="http://www.w3.org/2000/svg"
   xmlns:svg="http://www.w3.org/2000/svg">
  <sodipodi:namedview
     id="namedview7"
     pagecolor="#505050"
     bordercolor="#eeeeee"
     borderopacity="1"
     inkscape:showpageshadow="0"
     inkscape:pageopacity="0"
     inkscape:pagecheckerboard="0"
     inkscape:deskcolor="#505050"
     inkscape:document-units="mm"
     showgrid="false"
     inkscape:zoom="0.52724989"
     inkscape:cx="-35.087727"
     inkscape:cy="263.63211"
     inkscape:window-width="1920"
     inkscape:window-height="1017"
     inkscape:window-x="1912"
     inkscape:window-y="-8"
     inkscape:window-maximized="1"
     inkscape:current-layer="layer1" />
  <defs
     id="defs2" />
  <g
     inkscape:label="Layer 1"
     inkscape:groupmode="layer"
     id="layer1"
     transform="translate(-416.22762,-41.149053)">
    <rect
       style="display:none;fill:#272031;fill-opacity:1;stroke-width:2;stroke-linecap:round;stroke-linejoin:round"
       id="rect234"
       width="79.245316"
       height="77.332321"
       x="406.67471"
       y="15.05453" />
    <path
       style="fill:#565656;fill-opacity:1;stroke:none;stroke-width:0.265;stroke-linecap:butt;stroke-linejoin:miter;stroke-dasharray:none;stroke-opacity:1"
       d="m 436.01688,53.255405 -1.1291,-2.509089 -5.89636,-2.446361 6.83727,1.317271 2.82272,4.202723 c -0.87818,-0.188181 -1.75635,0.693544 -2.63453,-0.564544 z"
       id="path1690"
       sodipodi:nodetypes="cccccc"
       transform="translate(-6.8749999e-6)" />
    <path
       style="fill:#575757;fill-opacity:1;stroke:none;stroke-width:0.265;stroke-linecap:butt;stroke-linejoin:miter;stroke-dasharray:none;stroke-opacity:1"
       d="m 445.93776,56.833468 c 0.31364,0 5.17308,-4.691393 5.17308,-4.691393 l 6.03581,1.802786 -5.44658,-0.389194 -4.98751,4.964589 z"
       id="path1692"
       sodipodi:nodetypes="cccccc"
       transform="translate(-6.8749999e-6)" />
    <path
       style="fill:#575757;fill-opacity:1;stroke:none;stroke-width:0.264583px;stroke-linecap:butt;stroke-linejoin:miter;stroke-opacity:1"
       d="m 440.54409,81.839461 5.07417,-1.250659 3.65927,4.856856 -3.9254,-3.28226 -3.32662,0.532257 z"
       id="path1129"
       sodipodi:nodetypes="cccccc"
       transform="translate(-6.8749999e-6)" />
    <path
       style="fill:#606060;fill-opacity:1;stroke:none;stroke-width:0.265;stroke-linecap:butt;stroke-linejoin:miter;stroke-dasharray:none;stroke-opacity:1"
       d="m 447.65855,57.600344 10.41931,-0.461316 6.82616,1.87443 9.59589,-1.433811 -10.3011,3.452609 -6.22042,-1.603841 -11.59266,2.27359 z"
       id="path1676"
       sodipodi:nodetypes="cccccccc" />
    <path
       style="fill:#5d5d5d;fill-opacity:1;stroke:none;stroke-width:0.265;stroke-linecap:butt;stroke-linejoin:miter;stroke-dasharray:none;stroke-opacity:1"
       d="m 444.79863,52.276328 7.28233,-4.89006 4.58208,1.889509 4.66423,-2.230367 -4.72887,0.397074 -5.36851,-1.736832 -9.02696,4.099756 z"
       id="path1678"
       sodipodi:nodetypes="cccccccc" />
    <path
       style="fill:#606060;fill-opacity:1;stroke:none;stroke-width:0.265;stroke-linecap:butt;stroke-linejoin:miter;stroke-dasharray:none;stroke-opacity:1"
       d="m 437.71051,44.849959 -5.83366,-1.129091 -4.01452,-2.571815 2.69727,3.700905 6.27372,1.42479 3.57445,2.966113 1.25453,-2.383633 z"
       id="path1680"
       sodipodi:nodetypes="cccccccc" />
    <path
       style="fill:#626262;fill-opacity:1;stroke:none;stroke-width:0.265;stroke-linecap:butt;stroke-linejoin:miter;stroke-dasharray:none;stroke-opacity:1"
       d="m 443.80841,55.35215 -12.74253,-3.696447 -8.84901,1.286067 -5.26908,-2.885454 4.83,4.202724 9.05869,-0.109468 12.28562,5.872219 z"
       id="path1686"
       sodipodi:nodetypes="cccccccc" />
    <path
       style="fill:#5f5f5f;fill-opacity:1;stroke:none;stroke-width:0.265;stroke-linecap:butt;stroke-linejoin:miter;stroke-dasharray:none;stroke-opacity:1"
       d="m 439.68194,66.232526 -6.48548,-3.607739 -11.23906,2.710485 10.93802,-4.519578 8.68003,2.072768 z"
       id="path1688"
       sodipodi:nodetypes="cccccc" />
    <path
       style="fill:#575757;fill-opacity:1;stroke:none;stroke-width:0.264583px;stroke-linecap:butt;stroke-linejoin:miter;stroke-opacity:1"
       d="m 416.22762,85.833657 c 0,0 8.06817,-3.068252 8.31908,-3.005527 0.13352,0.03338 4.39799,-0.706281 4.39799,-0.706281 l 1.97567,-1.790469 -3.20067,5.542172 -2.03049,-1.205729 -5.74138,1.219429 -3.7202,-0.05359 z"
       id="path453"
       sodipodi:nodetypes="ccccccccc" />
    <path
       style="fill:#656565;fill-opacity:1;stroke:none;stroke-width:0.264583px;stroke-linecap:butt;stroke-linejoin:miter;stroke-opacity:1"
       d="m 444.15454,67.570656 7.67339,-0.266129 5.27823,-3.149193 3.68145,2.350806 -3.63709,-3.814514 -5.45565,2.883064 -6.69758,-1.375 z"
       id="path1125"
       sodipodi:nodetypes="cccccccc" />
    <path
       style="fill:#616161;fill-opacity:1;stroke:none;stroke-width:0.264583px;stroke-linecap:butt;stroke-linejoin:miter;stroke-opacity:1"
       d="m 438.5946,85.029076 2.91709,-0.340925 2.7588,0.983305 8.0069,0.01391 -6.64908,-2.258179 -2.99134,-1.836156 -3.38912,-0.442894 z"
       id="path1127"
       sodipodi:nodetypes="cccccccc" />
    <path
       style="fill:#656565;fill-opacity:1;stroke:none;stroke-width:0.265;stroke-linecap:butt;stroke-linejoin:miter;stroke-dasharray:none;stroke-opacity:1"
       d="m 427.66216,85.927366 c 0,0 15.94471,-27.716512 15.44287,-28.720148 l -3.73045,-9.456193 6.56789,-5.201585 7.78014,-0.858504 -6.57495,2.366567 -4.7588,3.916601 5.41759,9.332348 -9.0251,28.590959 z"
       id="path901"
       sodipodi:nodetypes="cccccccccc" />
    <path
       style="fill:#7a7a7a;fill-opacity:1;stroke:none;stroke-width:0.264583px;stroke-linecap:butt;stroke-linejoin:miter;stroke-opacity:1"
       d="m 431.38923,82.047193 -3.05161,3.103338 -2.26824,0.726826 2.92861,-0.02218 2.85251,-2.708686 1.13093,-0.242109 0.942,0.161428 0.69663,-0.702491"
       id="path1134"
       sodipodi:nodetypes="cccccccc" />
  </g>
</svg>
