<?xml version="1.0" encoding="UTF-8" standalone="no"?>
<!-- Created with Inkscape (http://www.inkscape.org/) -->

<svg
   width="95.448433mm"
   height="95.448952mm"
   viewBox="0 0 95.448433 95.448952"
   version="1.1"
   id="svg2353"
   sodipodi:docname="gear.svg"
   inkscape:version="1.2.1 (9c6d41e410, 2022-07-14)"
   xmlns:inkscape="http://www.inkscape.org/namespaces/inkscape"
   xmlns:sodipodi="http://sodipodi.sourceforge.net/DTD/sodipodi-0.dtd"
   xmlns="http://www.w3.org/2000/svg"
   xmlns:svg="http://www.w3.org/2000/svg">
  <sodipodi:namedview
     id="namedview2355"
     pagecolor="#505050"
     bordercolor="#eeeeee"
     borderopacity="1"
     inkscape:showpageshadow="0"
     inkscape:pageopacity="0"
     inkscape:pagecheckerboard="0"
     inkscape:deskcolor="#505050"
     inkscape:document-units="mm"
     showgrid="false"
     inkscape:zoom="1.0544998"
     inkscape:cx="162.63636"
     inkscape:cy="236.13092"
     inkscape:window-width="1920"
     inkscape:window-height="1017"
     inkscape:window-x="1912"
     inkscape:window-y="-8"
     inkscape:window-maximized="1"
     inkscape:current-layer="layer1" />
  <defs
     id="defs2350">
    <inkscape:path-effect
       effect="copy_rotate"
       starting_point="105.12096,130.13708"
       origin="101.48386,130.13708"
       id="path-effect3038"
       is_visible="true"
       lpeversion="1.2"
       lpesatellites=""
       method="normal"
       num_copies="6"
       starting_angle="0"
       rotation_angle="60"
       gap="-0.01"
       copies_to_360="true"
       mirror_copies="false"
       split_items="false"
       link_styles="false" />
    <inkscape:path-effect
       effect="copy_rotate"
       starting_point="103.57961,99.349474"
       origin="100,100"
       id="path-effect2978"
       is_visible="true"
       lpeversion="1.2"
       lpesatellites=""
       method="kaleidoskope"
       num_copies="3"
       starting_angle="10.3"
       rotation_angle="120"
       gap="0.15"
       copies_to_360="true"
       mirror_copies="false"
       split_items="false"
       link_styles="false" />
  </defs>
  <g
     inkscape:label="Layer 1"
     inkscape:groupmode="layer"
     id="layer1"
     transform="translate(-57.275574,-100.77576)">
    <g
       inkscape:label="Rendered Gears"
       transform="matrix(2.1811145,0,0,2.1811145,105.00015,148.50003)"
       id="g2498"
       style="fill:#ffffff;fill-opacity:1;stroke:none;stroke-width:0.458481">
      <path
         id="path2494"
         style="fill:#ffffff;fill-opacity:1;stroke:none;stroke-width:0.121306"
         d="m -0.84646619,-21.88068 -0.47551191,1.711321 -0.015637,0.308953 0.092638,1.374175 -2.3372822,0.307531 -0.2663057,-1.351193 -0.094771,-0.294263 -0.9022169,-1.529836 -1.6352683,0.438077 -0.016348,1.776003 0.064918,0.302319 0.4449484,1.303334 -2.1778305,0.902217 -0.6070063,-1.236521 -0.1677441,-0.259435 -1.2675583,-1.244339 -1.466103,0.846539 0.443764,1.719614 0.140971,0.275309 0.767406,1.143882 -1.8703,1.434829 -0.906244,-1.037029 -0.229345,-0.20731 -1.546184,-0.874023 -1.19719,1.197191 0.873785,1.54642 0.207548,0.229109 1.037028,0.906481 -1.435065,1.870063 -1.143645,-0.767169 -0.275308,-0.140971 -1.719852,-0.444001 -0.846302,1.466103 1.244102,1.2675576 0.259672,0.167981 1.236521,0.6067694 -0.902217,2.1778305 -1.303334,-0.4449484 -0.302319,-0.064918 -1.776003,0.016348 -0.438314,1.6352683 1.530073,0.902217 0.294026,0.095008 1.35143,0.2663056 -0.307768,2.3370453 -1.374175,-0.092638 -0.308715,0.015637 -1.711322,0.47551194 v 1.69284148 l 1.711322,0.47551198 0.308715,0.015637 1.374175,-0.092638 0.307768,2.3370452 -1.35143,0.2663057 -0.294026,0.095008 -1.530073,0.902217 0.438314,1.6352682 1.776003,0.016348 0.302319,-0.064918 1.303334,-0.4449484 0.902217,2.1778305 -1.236521,0.6070062 -0.259672,0.1677442 -1.244102,1.2675577 0.846302,1.466103 1.719852,-0.444001 0.275308,-0.140971 1.143646,-0.767169 1.435064,1.870063 -1.037027,0.906481 -0.207548,0.229108 -0.873786,1.546421 1.197191,1.197191 1.546184,-0.874023 0.229345,-0.207311 0.906244,-1.037028 1.8703,1.435065 -0.767406,1.143646 -0.140971,0.275308 -0.443764,1.719852 1.466103,0.846302 1.2675573,-1.244102 0.1677441,-0.259672 0.6070063,-1.236521 2.1778305,0.902217 -0.4449484,1.303334 -0.064918,0.302319 0.016348,1.776002 1.6352683,0.438315 0.9022169,-1.530073 0.094771,-0.294026 0.2663057,-1.35143 2.3372822,0.307531 -0.092638,1.374175 0.015637,0.308952 0.47551191,1.711322 h 1.69284147 l 0.47551192,-1.711322 0.015637,-0.308952 -0.092638,-1.374175 2.3370453,-0.307531 0.2663056,1.35143 0.095008,0.294026 0.9022169,1.530073 1.6352683,-0.438315 0.016348,-1.776002 -0.064918,-0.302319 -0.4449484,-1.303334 2.1778305,-0.902217 0.6067694,1.236521 0.167981,0.259672 1.2673202,1.244102 1.466103,-0.846302 -0.443764,-1.719852 -0.140971,-0.275308 -0.767169,-1.143646 1.870063,-1.435065 0.906244,1.037028 0.229346,0.207311 1.54642,0.874023 1.197191,-1.197191 -0.874023,-1.546421 -0.207311,-0.229108 -1.037028,-0.906481 1.434828,-1.870063 1.143883,0.767169 0.275072,0.140971 1.719851,0.444001 0.846539,-1.466103 -1.244339,-1.2675577 -0.259435,-0.1677442 -1.236521,-0.6070062 0.902217,-2.1778305 1.303334,0.4449484 0.302319,0.064918 1.776003,-0.016348 0.438077,-1.6352682 -1.529836,-0.902217 -0.294263,-0.095008 -1.35143,-0.2663057 0.307768,-2.3370452 1.374175,0.092638 0.308952,-0.015637 1.711085,-0.47551198 v -1.69284148 l -1.711085,-0.47551194 -0.308952,-0.015637 -1.374175,0.092638 -0.307768,-2.3370453 1.35143,-0.2663056 0.294263,-0.095008 1.529836,-0.902217 -0.438077,-1.6352683 -1.776003,-0.016348 -0.302319,0.064918 -1.303334,0.4449484 -0.902217,-2.1778305 1.236521,-0.6067694 0.259435,-0.167981 1.244339,-1.2675576 -0.846539,-1.466103 -1.719851,0.444001 -0.275072,0.140971 -1.143883,0.767169 -1.434828,-1.870063 1.037028,-0.906481 0.207311,-0.229109 0.874023,-1.54642 -1.197191,-1.197191 -1.54642,0.874023 -0.229346,0.20731 -0.906244,1.037029 -1.870063,-1.434829 0.767169,-1.143882 0.140971,-0.275309 0.443764,-1.719614 -1.466103,-0.846539 -1.2673202,1.244339 -0.167981,0.259435 -0.6067694,1.236521 -2.1778305,-0.902217 0.4449484,-1.303334 0.064918,-0.302319 -0.016348,-1.776003 -1.6352683,-0.438077 -0.9022169,1.529836 -0.095008,0.294263 -0.2663056,1.351193 -2.3370453,-0.307531 0.092638,-1.374175 -0.015637,-0.308953 -0.47551192,-1.711321 z m 0.84630227402,5.896632 A 15.983986,15.983986 0 0 1 15.983861,-2.308226e-5 15.983986,15.983986 0 0 1 -1.6391598e-4,15.984002 15.983986,15.983986 0 0 1 -15.983952,-2.308226e-5 15.983986,15.983986 0 0 1 -1.6391598e-4,-15.984048 Z m 0,13.3382641 A 2.6458333,2.6458333 0 0 0 -2.6459247,2.1384447e-4 2.6458333,2.6458333 0 0 0 -1.6391598e-4,2.6459746 2.6458333,2.6458333 0 0 0 2.6458338,2.1384447e-4 2.6458333,2.6458333 0 0 0 -1.6391598e-4,-2.6457839 Z" />
    </g>
    <path
       style="fill:#ffffff;fill-opacity:1;stroke:none;stroke-width:2;stroke-linecap:round;stroke-linejoin:round"
       id="rect3036"
       width="2.3888717"
       height="71.434525"
       x="102.11113"
       y="94.629974"
       inkscape:path-effect="#path-effect3038"
       class="UnoptimicedTransforms"
       d="M 102.11113,94.629974 H 104.5 V 166.0645 h -2.38887 z m -31.063691,17.210326 1.194436,-2.06883 61.864115,35.71726 -1.19444,2.06883 z m -0.627269,35.5071 -1.194436,-2.06882 61.864116,-35.71726 1.19443,2.06882 z m 30.43642,18.29679 H 98.467719 V 94.209661 h 2.388871 z m 31.06369,-17.21033 -1.19444,2.06883 -61.864108,-35.71726 1.194436,-2.06883 z m 0.62727,-35.5071 1.19444,2.06882 -61.864117,35.71726 -1.194436,-2.06882 z"
       sodipodi:type="rect"
       transform="translate(3.51614,18.36292)"
       ry="0" />
  </g>
</svg>
